# xmcd
# Copyright (C) 1995-1998 Ti Kan
#
# Track frame offsets:
#       150
#       15886
#       30324
#       45571
#       59962
#       73986
#       86499
#       105559
#       124716
#       137944
#       152431
#       167976
#       177960
#       192535
#       211145
#       222463
#       238558
#
# Disc length: 3357 seconds
#
# Revision: 0
# Processed by: cddbd v1.5.1PL0 Copyright (c) Steve Scherf et al.
# Submitted via: CD-Transfer v1.0
#
DISCID=f10d1b11
DTITLE=Hans Marty - 
DYEAR=02
DGENRE=
TTITLE0=Ich süächän ä Platz
TTITLE1=Diä oberschti Schubladä
TTITLE2=Rätschä
TTITLE3=Ich dänkän an Dich
TTITLE4=Vatterschaft
TTITLE5=Jegerlatin
TTITLE6=Vercher...ti Wält
TTITLE7=Arcus senilis
TTITLE8=Moorä
TTITLE9=Ds Liäd vum Mänsch
TTITLE10=Tête à tête
TTITLE11=Vu miär zu Diär
TTITLE12=Fyyrliliä
TTITLE13=1. Korinther 13. 1-13
TTITLE14=C'est le ton, qui fait la musique
TTITLE15=Wenn ich dankbar bi
TTITLE16=Schlafliäd
EXTD=
EXTT0=
EXTT1=
EXTT2=
EXTT3=
EXTT4=
EXTT5=
EXTT6=
EXTT7=
EXTT8=
EXTT9=
EXTT10=
EXTT11=
EXTT12=
EXTT13=
EXTT14=
EXTT15=
EXTT16=
PLAYORDER=
